<?xml version="1.0" encoding="UTF-8" standalone="no"?>
<!DOCTYPE svg PUBLIC "-//W3C//DTD SVG 1.1//EN"
 "http://www.w3.org/Graphics/SVG/1.1/DTD/svg11.dtd">
<!-- Generated by graphviz version 12.2.1 (0)
 -->
<!-- Pages: 1 -->
<svg width="424pt" height="1877pt"
 viewBox="0.00 0.00 424.24 1877.47" xmlns="http://www.w3.org/2000/svg" xmlns:xlink="http://www.w3.org/1999/xlink">
<g id="graph0" class="graph" transform="scale(1 1) rotate(0) translate(4 1873.47)">
<polygon fill="white" stroke="none" points="-4,4 -4,-1873.47 420.24,-1873.47 420.24,4 -4,4"/>
<!-- &#45;1 -->
<g id="node1" class="node">
<title>&#45;1</title>
<polygon fill="lightgray" stroke="black" points="219.87,-644.5 196.37,-644.5 196.37,-626 219.87,-626 219.87,-644.5"/>
<text text-anchor="middle" x="208.12" y="-631.95" font-family="Times,serif" font-size="9.00">&#45;1</text>
</g>
<!-- 30932 -->
<g id="node65" class="node">
<title>30932</title>
<ellipse fill="white" stroke="black" cx="298.57" cy="-668.25" rx="27.22" ry="27.22"/>
<text text-anchor="middle" x="298.57" y="-664.95" font-family="Times,serif" font-size="9.00">30932</text>
</g>
<!-- &#45;1&#45;&gt;30932 -->
<g id="edge47" class="edge">
<title>&#45;1&#45;&gt;30932</title>
<path fill="none" stroke="red" stroke-width="0.15" d="M220.32,-639.43C231.18,-643.48 248.2,-649.83 263.5,-655.54"/>
<polygon fill="red" stroke="red" stroke-width="0.15" points="261.93,-658.69 272.53,-658.91 264.38,-652.13 261.93,-658.69"/>
</g>
<!-- &#45;2 -->
<g id="node2" class="node">
<title>&#45;2</title>
<polygon fill="lightgray" stroke="black" points="219.87,-18.5 196.37,-18.5 196.37,0 219.87,0 219.87,-18.5"/>
<text text-anchor="middle" x="208.12" y="-5.95" font-family="Times,serif" font-size="9.00">&#45;2</text>
</g>
<!-- 50207 -->
<g id="node50" class="node">
<title>50207</title>
<ellipse fill="white" stroke="black" cx="298.57" cy="-36.25" rx="27.22" ry="27.22"/>
<text text-anchor="middle" x="298.57" y="-32.95" font-family="Times,serif" font-size="9.00">50207</text>
</g>
<!-- &#45;2&#45;&gt;50207 -->
<g id="edge12" class="edge">
<title>&#45;2&#45;&gt;50207</title>
<path fill="none" stroke="green" stroke-width="0.6" d="M220.32,-12.67C230.82,-15.87 247.09,-20.84 261.99,-25.39"/>
<polygon fill="green" stroke="green" stroke-width="0.6" points="260.55,-28.61 271.14,-28.18 262.6,-21.92 260.55,-28.61"/>
</g>
<!-- &#45;3 -->
<g id="node3" class="node">
<title>&#45;3</title>
<polygon fill="lightgray" stroke="black" points="38.97,-444.5 15.47,-444.5 15.47,-426 38.97,-426 38.97,-444.5"/>
<text text-anchor="middle" x="27.22" y="-431.95" font-family="Times,serif" font-size="9.00">&#45;3</text>
</g>
<!-- &#45;4 -->
<g id="node4" class="node">
<title>&#45;4</title>
<polygon fill="lightgray" stroke="black" points="38.97,-683.5 15.47,-683.5 15.47,-665 38.97,-665 38.97,-683.5"/>
<text text-anchor="middle" x="27.22" y="-670.95" font-family="Times,serif" font-size="9.00">&#45;4</text>
</g>
<!-- &#45;5 -->
<g id="node5" class="node">
<title>&#45;5</title>
<polygon fill="lightgray" stroke="black" points="38.97,-821.5 15.47,-821.5 15.47,-803 38.97,-803 38.97,-821.5"/>
<text text-anchor="middle" x="27.22" y="-808.95" font-family="Times,serif" font-size="9.00">&#45;5</text>
</g>
<!-- 50156 -->
<g id="node69" class="node">
<title>50156</title>
<ellipse fill="white" stroke="black" cx="117.67" cy="-812.25" rx="27.22" ry="27.22"/>
<text text-anchor="middle" x="117.67" y="-808.95" font-family="Times,serif" font-size="9.00">50156</text>
</g>
<!-- &#45;5&#45;&gt;50156 -->
<g id="edge25" class="edge">
<title>&#45;5&#45;&gt;50156</title>
<path fill="none" stroke="green" stroke-width="0.14" stroke-dasharray="1,5" d="M39.43,-812.25C49.7,-812.25 65.49,-812.25 80.13,-812.25"/>
<polygon fill="green" stroke="green" stroke-width="0.14" points="79.78,-815.75 89.78,-812.25 79.78,-808.75 79.78,-815.75"/>
</g>
<!-- &#45;6 -->
<g id="node6" class="node">
<title>&#45;6</title>
<polygon fill="lightgray" stroke="black" points="38.97,-858.5 15.47,-858.5 15.47,-840 38.97,-840 38.97,-858.5"/>
<text text-anchor="middle" x="27.22" y="-845.95" font-family="Times,serif" font-size="9.00">&#45;6</text>
</g>
<!-- &#45;7 -->
<g id="node7" class="node">
<title>&#45;7</title>
<polygon fill="lightgray" stroke="black" points="38.97,-895.5 15.47,-895.5 15.47,-877 38.97,-877 38.97,-895.5"/>
<text text-anchor="middle" x="27.22" y="-882.95" font-family="Times,serif" font-size="9.00">&#45;7</text>
</g>
<!-- 44951 -->
<g id="node48" class="node">
<title>44951</title>
<ellipse fill="white" stroke="black" cx="117.67" cy="-957.25" rx="27.22" ry="27.22"/>
<text text-anchor="middle" x="117.67" y="-953.95" font-family="Times,serif" font-size="9.00">44951</text>
</g>
<!-- &#45;7&#45;&gt;44951 -->
<g id="edge9" class="edge">
<title>&#45;7&#45;&gt;44951</title>
<path fill="none" stroke="green" stroke-width="0.82" stroke-dasharray="1,5" d="M39.32,-894.03C44.04,-897.41 49.57,-901.45 54.45,-905.25 65.64,-913.97 77.67,-923.88 88.13,-932.7"/>
<polygon fill="green" stroke="green" stroke-width="0.82" points="85.66,-935.19 95.55,-938.99 90.19,-929.85 85.66,-935.19"/>
</g>
<!-- 81213 -->
<g id="node57" class="node">
<title>81213</title>
<ellipse fill="white" stroke="black" cx="117.67" cy="-885.25" rx="27.22" ry="27.22"/>
<text text-anchor="middle" x="117.67" y="-881.95" font-family="Times,serif" font-size="9.00">81213</text>
</g>
<!-- &#45;7&#45;&gt;81213 -->
<g id="edge23" class="edge">
<title>&#45;7&#45;&gt;81213</title>
<path fill="none" stroke="red" stroke-width="0.29" d="M39.43,-886.12C49.6,-886.01 65.19,-885.83 79.71,-885.67"/>
<polygon fill="red" stroke="red" stroke-width="0.29" points="79.6,-889.17 89.56,-885.56 79.52,-882.17 79.6,-889.17"/>
</g>
<!-- &#45;8 -->
<g id="node8" class="node">
<title>&#45;8</title>
<polygon fill="lightgray" stroke="black" points="129.42,-455.5 105.92,-455.5 105.92,-437 129.42,-437 129.42,-455.5"/>
<text text-anchor="middle" x="117.67" y="-442.95" font-family="Times,serif" font-size="9.00">&#45;8</text>
</g>
<!-- 87839 -->
<g id="node51" class="node">
<title>87839</title>
<ellipse fill="white" stroke="black" cx="208.12" cy="-355.25" rx="27.22" ry="27.22"/>
<text text-anchor="middle" x="208.12" y="-351.95" font-family="Times,serif" font-size="9.00">87839</text>
</g>
<!-- &#45;8&#45;&gt;87839 -->
<g id="edge39" class="edge">
<title>&#45;8&#45;&gt;87839</title>
<path fill="none" stroke="green" stroke-width="0.27" d="M129.82,-439.02C134.66,-435.68 140.26,-431.51 144.89,-427.25 159.14,-414.18 173.36,-398.01 184.61,-384.31"/>
<polygon fill="green" stroke="green" stroke-width="0.27" points="187.05,-386.86 190.61,-376.88 181.6,-382.46 187.05,-386.86"/>
</g>
<!-- &#45;9 -->
<g id="node9" class="node">
<title>&#45;9</title>
<polygon fill="lightgray" stroke="black" points="38.97,-932.5 15.47,-932.5 15.47,-914 38.97,-914 38.97,-932.5"/>
<text text-anchor="middle" x="27.22" y="-919.95" font-family="Times,serif" font-size="9.00">&#45;9</text>
</g>
<!-- &#45;10 -->
<g id="node10" class="node">
<title>&#45;10</title>
<polygon fill="lightgray" stroke="black" points="41.22,-969.5 13.22,-969.5 13.22,-951 41.22,-951 41.22,-969.5"/>
<text text-anchor="middle" x="27.22" y="-956.95" font-family="Times,serif" font-size="9.00">&#45;10</text>
</g>
<!-- &#45;11 -->
<g id="node11" class="node">
<title>&#45;11</title>
<polygon fill="lightgray" stroke="black" points="41.22,-1006.5 13.22,-1006.5 13.22,-988 41.22,-988 41.22,-1006.5"/>
<text text-anchor="middle" x="27.22" y="-993.95" font-family="Times,serif" font-size="9.00">&#45;11</text>
</g>
<!-- &#45;12 -->
<g id="node12" class="node">
<title>&#45;12</title>
<polygon fill="lightgray" stroke="black" points="41.22,-1043.5 13.22,-1043.5 13.22,-1025 41.22,-1025 41.22,-1043.5"/>
<text text-anchor="middle" x="27.22" y="-1030.95" font-family="Times,serif" font-size="9.00">&#45;12</text>
</g>
<!-- &#45;13 -->
<g id="node13" class="node">
<title>&#45;13</title>
<polygon fill="lightgray" stroke="black" points="222.12,-752.5 194.12,-752.5 194.12,-734 222.12,-734 222.12,-752.5"/>
<text text-anchor="middle" x="208.12" y="-739.95" font-family="Times,serif" font-size="9.00">&#45;13</text>
</g>
<!-- 78543 -->
<g id="node64" class="node">
<title>78543</title>
<ellipse fill="white" stroke="black" cx="298.57" cy="-743.25" rx="27.22" ry="27.22"/>
<text text-anchor="middle" x="298.57" y="-739.95" font-family="Times,serif" font-size="9.00">78543</text>
</g>
<!-- &#45;13&#45;&gt;78543 -->
<g id="edge34" class="edge">
<title>&#45;13&#45;&gt;78543</title>
<path fill="none" stroke="green" stroke-width="0.41" stroke-dasharray="1,5" d="M222.55,-743.25C232.69,-743.25 247.13,-743.25 260.63,-743.25"/>
<polygon fill="green" stroke="green" stroke-width="0.41" points="260.53,-746.75 270.53,-743.25 260.53,-739.75 260.53,-746.75"/>
</g>
<!-- &#45;14 -->
<g id="node14" class="node">
<title>&#45;14</title>
<polygon fill="lightgray" stroke="black" points="131.67,-418.5 103.67,-418.5 103.67,-400 131.67,-400 131.67,-418.5"/>
<text text-anchor="middle" x="117.67" y="-405.95" font-family="Times,serif" font-size="9.00">&#45;14</text>
</g>
<!-- 57772 -->
<g id="node53" class="node">
<title>57772</title>
<ellipse fill="white" stroke="black" cx="208.12" cy="-283.25" rx="27.22" ry="27.22"/>
<text text-anchor="middle" x="208.12" y="-279.95" font-family="Times,serif" font-size="9.00">57772</text>
</g>
<!-- &#45;14&#45;&gt;57772 -->
<g id="edge30" class="edge">
<title>&#45;14&#45;&gt;57772</title>
<path fill="none" stroke="red" stroke-width="0.16" stroke-dasharray="1,5" d="M131.98,-401.98C136.47,-399.07 141.27,-395.41 144.89,-391.25 168.39,-364.27 162.3,-349.81 180.89,-319.25 182.2,-317.11 183.59,-314.94 185.03,-312.77"/>
<polygon fill="red" stroke="red" stroke-width="0.16" points="187.76,-314.96 190.58,-304.75 182.01,-310.98 187.76,-314.96"/>
</g>
<!-- 65609 -->
<g id="node60" class="node">
<title>65609</title>
<ellipse fill="white" stroke="black" cx="208.12" cy="-689.25" rx="27.22" ry="27.22"/>
<text text-anchor="middle" x="208.12" y="-685.95" font-family="Times,serif" font-size="9.00">65609</text>
</g>
<!-- &#45;14&#45;&gt;65609 -->
<g id="edge11" class="edge">
<title>&#45;14&#45;&gt;65609</title>
<path fill="none" stroke="red" stroke-width="0.18" d="M131.92,-415.95C136.74,-419.04 141.77,-423.17 144.89,-428.25 197.93,-514.52 142.01,-559.74 180.89,-653.25 181.88,-655.62 183.05,-657.99 184.35,-660.31"/>
<polygon fill="red" stroke="red" stroke-width="0.18" points="181.36,-662.12 189.66,-668.71 187.27,-658.38 181.36,-662.12"/>
</g>
<!-- &#45;15 -->
<g id="node15" class="node">
<title>&#45;15</title>
<polygon fill="lightgray" stroke="black" points="41.22,-210.5 13.22,-210.5 13.22,-192 41.22,-192 41.22,-210.5"/>
<text text-anchor="middle" x="27.22" y="-197.95" font-family="Times,serif" font-size="9.00">&#45;15</text>
</g>
<!-- 47497 -->
<g id="node44" class="node">
<title>47497</title>
<ellipse fill="white" stroke="black" cx="117.67" cy="-63.25" rx="27.22" ry="27.22"/>
<text text-anchor="middle" x="117.67" y="-59.95" font-family="Times,serif" font-size="9.00">47497</text>
</g>
<!-- &#45;15&#45;&gt;47497 -->
<g id="edge43" class="edge">
<title>&#45;15&#45;&gt;47497</title>
<path fill="none" stroke="green" stroke-width="0.7" d="M33.8,-191.52C44.39,-173.19 68.33,-132.37 90.45,-99.25 91.74,-97.32 93.09,-95.34 94.46,-93.36"/>
<polygon fill="green" stroke="green" stroke-width="0.7" points="97.03,-95.79 99.96,-85.61 91.32,-91.74 97.03,-95.79"/>
</g>
<!-- 86829 -->
<g id="node54" class="node">
<title>86829</title>
<ellipse fill="white" stroke="black" cx="117.67" cy="-173.25" rx="27.22" ry="27.22"/>
<text text-anchor="middle" x="117.67" y="-169.95" font-family="Times,serif" font-size="9.00">86829</text>
</g>
<!-- &#45;15&#45;&gt;86829 -->
<g id="edge37" class="edge">
<title>&#45;15&#45;&gt;86829</title>
<path fill="none" stroke="red" stroke-width="0.33" d="M41.66,-197C52.23,-193.65 67.48,-188.82 81.46,-184.4"/>
<polygon fill="red" stroke="red" stroke-width="0.33" points="82.39,-187.77 90.87,-181.42 80.28,-181.1 82.39,-187.77"/>
</g>
<!-- 51147 -->
<g id="node61" class="node">
<title>51147</title>
<ellipse fill="white" stroke="black" cx="117.67" cy="-355.25" rx="27.22" ry="27.22"/>
<text text-anchor="middle" x="117.67" y="-351.95" font-family="Times,serif" font-size="9.00">51147</text>
</g>
<!-- &#45;15&#45;&gt;51147 -->
<g id="edge21" class="edge">
<title>&#45;15&#45;&gt;51147</title>
<path fill="none" stroke="red" stroke-width="0.44" stroke-dasharray="1,5" d="M32.77,-210.99C42.47,-231.53 66.31,-280.53 90.45,-319.25 91.68,-321.22 92.98,-323.23 94.32,-325.23"/>
<polygon fill="red" stroke="red" stroke-width="0.44" points="91.39,-327.14 99.97,-333.36 97.13,-323.15 91.39,-327.14"/>
</g>
<!-- 12496 -->
<g id="node63" class="node">
<title>12496</title>
<ellipse fill="white" stroke="black" cx="389.01" cy="-255.25" rx="27.22" ry="27.22"/>
<text text-anchor="middle" x="389.01" y="-251.95" font-family="Times,serif" font-size="9.00">12496</text>
</g>
<!-- &#45;15&#45;&gt;12496 -->
<g id="edge17" class="edge">
<title>&#45;15&#45;&gt;12496</title>
<path fill="none" stroke="red" stroke-width="0.12" d="M41.46,-203.24C91.93,-210.81 273.45,-238.06 351.7,-249.8"/>
<polygon fill="red" stroke="red" stroke-width="0.12" points="351.01,-253.24 361.42,-251.26 352.05,-246.31 351.01,-253.24"/>
</g>
<!-- &#45;16 -->
<g id="node16" class="node">
<title>&#45;16</title>
<polygon fill="lightgray" stroke="black" points="41.22,-1080.5 13.22,-1080.5 13.22,-1062 41.22,-1062 41.22,-1080.5"/>
<text text-anchor="middle" x="27.22" y="-1067.95" font-family="Times,serif" font-size="9.00">&#45;16</text>
</g>
<!-- &#45;17 -->
<g id="node17" class="node">
<title>&#45;17</title>
<polygon fill="lightgray" stroke="black" points="41.22,-1117.5 13.22,-1117.5 13.22,-1099 41.22,-1099 41.22,-1117.5"/>
<text text-anchor="middle" x="27.22" y="-1104.95" font-family="Times,serif" font-size="9.00">&#45;17</text>
</g>
<!-- &#45;18 -->
<g id="node18" class="node">
<title>&#45;18</title>
<polygon fill="lightgray" stroke="black" points="41.22,-1154.5 13.22,-1154.5 13.22,-1136 41.22,-1136 41.22,-1154.5"/>
<text text-anchor="middle" x="27.22" y="-1141.95" font-family="Times,serif" font-size="9.00">&#45;18</text>
</g>
<!-- 43798 -->
<g id="node47" class="node">
<title>43798</title>
<ellipse fill="white" stroke="black" cx="117.67" cy="-1145.25" rx="27.22" ry="27.22"/>
<text text-anchor="middle" x="117.67" y="-1141.95" font-family="Times,serif" font-size="9.00">43798</text>
</g>
<!-- &#45;18&#45;&gt;43798 -->
<g id="edge28" class="edge">
<title>&#45;18&#45;&gt;43798</title>
<path fill="none" stroke="red" stroke-width="0.1" d="M41.66,-1145.25C51.9,-1145.25 66.52,-1145.25 80.14,-1145.25"/>
<polygon fill="red" stroke="red" stroke-width="0.1" points="80.11,-1148.75 90.11,-1145.25 80.11,-1141.75 80.11,-1148.75"/>
</g>
<!-- &#45;19 -->
<g id="node19" class="node">
<title>&#45;19</title>
<polygon fill="lightgray" stroke="black" points="41.22,-1191.5 13.22,-1191.5 13.22,-1173 41.22,-1173 41.22,-1191.5"/>
<text text-anchor="middle" x="27.22" y="-1178.95" font-family="Times,serif" font-size="9.00">&#45;19</text>
</g>
<!-- &#45;20 -->
<g id="node20" class="node">
<title>&#45;20</title>
<polygon fill="lightgray" stroke="black" points="41.22,-1228.5 13.22,-1228.5 13.22,-1210 41.22,-1210 41.22,-1228.5"/>
<text text-anchor="middle" x="27.22" y="-1215.95" font-family="Times,serif" font-size="9.00">&#45;20</text>
</g>
<!-- &#45;21 -->
<g id="node21" class="node">
<title>&#45;21</title>
<polygon fill="lightgray" stroke="black" points="41.22,-1265.5 13.22,-1265.5 13.22,-1247 41.22,-1247 41.22,-1265.5"/>
<text text-anchor="middle" x="27.22" y="-1252.95" font-family="Times,serif" font-size="9.00">&#45;21</text>
</g>
<!-- &#45;22 -->
<g id="node22" class="node">
<title>&#45;22</title>
<polygon fill="lightgray" stroke="black" points="41.22,-1302.5 13.22,-1302.5 13.22,-1284 41.22,-1284 41.22,-1302.5"/>
<text text-anchor="middle" x="27.22" y="-1289.95" font-family="Times,serif" font-size="9.00">&#45;22</text>
</g>
<!-- &#45;23 -->
<g id="node23" class="node">
<title>&#45;23</title>
<polygon fill="lightgray" stroke="black" points="41.22,-1410.5 13.22,-1410.5 13.22,-1392 41.22,-1392 41.22,-1410.5"/>
<text text-anchor="middle" x="27.22" y="-1397.95" font-family="Times,serif" font-size="9.00">&#45;23</text>
</g>
<!-- 83414 -->
<g id="node66" class="node">
<title>83414</title>
<ellipse fill="white" stroke="black" cx="117.67" cy="-1365.25" rx="27.22" ry="27.22"/>
<text text-anchor="middle" x="117.67" y="-1361.95" font-family="Times,serif" font-size="9.00">83414</text>
</g>
<!-- &#45;23&#45;&gt;83414 -->
<g id="edge36" class="edge">
<title>&#45;23&#45;&gt;83414</title>
<path fill="none" stroke="red" stroke-width="0.25" stroke-dasharray="1,5" d="M41.66,-1395.78C52.49,-1391.37 68.23,-1384.97 82.49,-1379.16"/>
<polygon fill="red" stroke="red" stroke-width="0.25" points="83.76,-1382.42 91.7,-1375.41 81.12,-1375.94 83.76,-1382.42"/>
</g>
<!-- &#45;24 -->
<g id="node24" class="node">
<title>&#45;24</title>
<polygon fill="lightgray" stroke="black" points="41.22,-1464.5 13.22,-1464.5 13.22,-1446 41.22,-1446 41.22,-1464.5"/>
<text text-anchor="middle" x="27.22" y="-1451.95" font-family="Times,serif" font-size="9.00">&#45;24</text>
</g>
<!-- 84230 -->
<g id="node43" class="node">
<title>84230</title>
<ellipse fill="white" stroke="black" cx="117.67" cy="-1455.25" rx="27.22" ry="27.22"/>
<text text-anchor="middle" x="117.67" y="-1451.95" font-family="Times,serif" font-size="9.00">84230</text>
</g>
<!-- &#45;24&#45;&gt;84230 -->
<g id="edge33" class="edge">
<title>&#45;24&#45;&gt;84230</title>
<path fill="none" stroke="red" stroke-width="1.42" d="M41.66,-1455.25C51.4,-1455.25 65.1,-1455.25 78.13,-1455.25"/>
<polygon fill="red" stroke="red" stroke-width="1.42" points="78.12,-1458.75 88.12,-1455.25 78.12,-1451.75 78.12,-1458.75"/>
</g>
<!-- &#45;25 -->
<g id="node25" class="node">
<title>&#45;25</title>
<polygon fill="lightgray" stroke="black" points="41.22,-1501.5 13.22,-1501.5 13.22,-1483 41.22,-1483 41.22,-1501.5"/>
<text text-anchor="middle" x="27.22" y="-1488.95" font-family="Times,serif" font-size="9.00">&#45;25</text>
</g>
<!-- &#45;26 -->
<g id="node26" class="node">
<title>&#45;26</title>
<polygon fill="lightgray" stroke="black" points="41.22,-1538.5 13.22,-1538.5 13.22,-1520 41.22,-1520 41.22,-1538.5"/>
<text text-anchor="middle" x="27.22" y="-1525.95" font-family="Times,serif" font-size="9.00">&#45;26</text>
</g>
<!-- &#45;27 -->
<g id="node27" class="node">
<title>&#45;27</title>
<polygon fill="lightgray" stroke="black" points="41.22,-1612.5 13.22,-1612.5 13.22,-1594 41.22,-1594 41.22,-1612.5"/>
<text text-anchor="middle" x="27.22" y="-1599.95" font-family="Times,serif" font-size="9.00">&#45;27</text>
</g>
<!-- 50743 -->
<g id="node56" class="node">
<title>50743</title>
<ellipse fill="white" stroke="black" cx="117.67" cy="-1584.25" rx="27.22" ry="27.22"/>
<text text-anchor="middle" x="117.67" y="-1580.95" font-family="Times,serif" font-size="9.00">50743</text>
</g>
<!-- &#45;27&#45;&gt;50743 -->
<g id="edge26" class="edge">
<title>&#45;27&#45;&gt;50743</title>
<path fill="none" stroke="red" stroke-width="0.38" d="M41.66,-1600.36C51.98,-1598.15 66.74,-1594.98 80.44,-1592.03"/>
<polygon fill="red" stroke="red" stroke-width="0.38" points="81.01,-1595.49 90.06,-1589.97 79.54,-1588.65 81.01,-1595.49"/>
</g>
<!-- &#45;28 -->
<g id="node28" class="node">
<title>&#45;28</title>
<polygon fill="lightgray" stroke="black" points="41.22,-1649.5 13.22,-1649.5 13.22,-1631 41.22,-1631 41.22,-1649.5"/>
<text text-anchor="middle" x="27.22" y="-1636.95" font-family="Times,serif" font-size="9.00">&#45;28</text>
</g>
<!-- &#45;29 -->
<g id="node29" class="node">
<title>&#45;29</title>
<polygon fill="lightgray" stroke="black" points="41.22,-1686.5 13.22,-1686.5 13.22,-1668 41.22,-1668 41.22,-1686.5"/>
<text text-anchor="middle" x="27.22" y="-1673.95" font-family="Times,serif" font-size="9.00">&#45;29</text>
</g>
<!-- &#45;30 -->
<g id="node30" class="node">
<title>&#45;30</title>
<polygon fill="lightgray" stroke="black" points="222.12,-466.5 194.12,-466.5 194.12,-448 222.12,-448 222.12,-466.5"/>
<text text-anchor="middle" x="208.12" y="-453.95" font-family="Times,serif" font-size="9.00">&#45;30</text>
</g>
<!-- 70724 -->
<g id="node59" class="node">
<title>70724</title>
<ellipse fill="white" stroke="black" cx="298.57" cy="-402.25" rx="27.22" ry="27.22"/>
<text text-anchor="middle" x="298.57" y="-398.95" font-family="Times,serif" font-size="9.00">70724</text>
</g>
<!-- &#45;30&#45;&gt;70724 -->
<g id="edge29" class="edge">
<title>&#45;30&#45;&gt;70724</title>
<path fill="none" stroke="green" stroke-width="0.16" stroke-dasharray="1,5" d="M222.55,-448.9C234.19,-441.66 251.46,-430.92 266.51,-421.56"/>
<polygon fill="green" stroke="green" stroke-width="0.16" points="268.2,-424.63 274.84,-416.38 264.5,-418.69 268.2,-424.63"/>
</g>
<!-- &#45;30&#45;&gt;12496 -->
<g id="edge5" class="edge">
<title>&#45;30&#45;&gt;12496</title>
<path fill="none" stroke="red" stroke-width="0.79" stroke-dasharray="1,5" d="M222.45,-459.13C246.17,-461.7 296.02,-463.44 325.79,-438.25 368.38,-402.21 381.89,-335.8 386.14,-293.66"/>
<polygon fill="red" stroke="red" stroke-width="0.79" points="389.6,-294.18 386.98,-283.92 382.63,-293.58 389.6,-294.18"/>
</g>
<!-- 50028 -->
<g id="node68" class="node">
<title>50028</title>
<ellipse fill="white" stroke="black" cx="298.57" cy="-517.25" rx="27.22" ry="27.22"/>
<text text-anchor="middle" x="298.57" y="-513.95" font-family="Times,serif" font-size="9.00">50028</text>
</g>
<!-- &#45;30&#45;&gt;50028 -->
<g id="edge7" class="edge">
<title>&#45;30&#45;&gt;50028</title>
<path fill="none" stroke="green" stroke-width="0.58" stroke-dasharray="1,5" d="M222.55,-466.36C234.16,-474.24 251.38,-485.92 266.4,-496.11"/>
<polygon fill="green" stroke="green" stroke-width="0.58" points="264.42,-498.99 274.66,-501.71 268.35,-493.2 264.42,-498.99"/>
</g>
<!-- &#45;31 -->
<g id="node31" class="node">
<title>&#45;31</title>
<polygon fill="lightgray" stroke="black" points="41.22,-1575.5 13.22,-1575.5 13.22,-1557 41.22,-1557 41.22,-1575.5"/>
<text text-anchor="middle" x="27.22" y="-1562.95" font-family="Times,serif" font-size="9.00">&#45;31</text>
</g>
<!-- &#45;31&#45;&gt;50743 -->
<g id="edge18" class="edge">
<title>&#45;31&#45;&gt;50743</title>
<path fill="none" stroke="red" stroke-width="0.33" stroke-dasharray="1,5" d="M41.66,-1568.98C51.98,-1571.08 66.74,-1574.09 80.44,-1576.88"/>
<polygon fill="red" stroke="red" stroke-width="0.33" points="79.63,-1580.28 90.13,-1578.85 81.03,-1573.42 79.63,-1580.28"/>
</g>
<!-- &#45;32 -->
<g id="node32" class="node">
<title>&#45;32</title>
<polygon fill="lightgray" stroke="black" points="41.22,-1723.5 13.22,-1723.5 13.22,-1705 41.22,-1705 41.22,-1723.5"/>
<text text-anchor="middle" x="27.22" y="-1710.95" font-family="Times,serif" font-size="9.00">&#45;32</text>
</g>
<!-- &#45;33 -->
<g id="node33" class="node">
<title>&#45;33</title>
<polygon fill="lightgray" stroke="black" points="131.67,-767.5 103.67,-767.5 103.67,-749 131.67,-749 131.67,-767.5"/>
<text text-anchor="middle" x="117.67" y="-754.95" font-family="Times,serif" font-size="9.00">&#45;33</text>
</g>
<!-- 28170 -->
<g id="node45" class="node">
<title>28170</title>
<ellipse fill="white" stroke="black" cx="298.57" cy="-821.25" rx="27.22" ry="27.22"/>
<text text-anchor="middle" x="298.57" y="-817.95" font-family="Times,serif" font-size="9.00">28170</text>
</g>
<!-- &#45;33&#45;&gt;28170 -->
<g id="edge31" class="edge">
<title>&#45;33&#45;&gt;28170</title>
<path fill="none" stroke="green" stroke-width="0.1" d="M131.97,-766.91C136.19,-769.77 140.81,-773.05 144.89,-776.25 161.75,-789.44 161.34,-799.54 180.89,-808.25 206.03,-819.44 237.11,-822.44 260.87,-822.78"/>
<polygon fill="green" stroke="green" stroke-width="0.1" points="260.74,-826.28 270.74,-822.78 260.74,-819.28 260.74,-826.28"/>
</g>
<!-- &#45;33&#45;&gt;65609 -->
<g id="edge32" class="edge">
<title>&#45;33&#45;&gt;65609</title>
<path fill="none" stroke="red" stroke-width="0.14" stroke-dasharray="1,5" d="M130.97,-748.66C143.1,-739.2 162.08,-724.39 178.06,-711.92"/>
<polygon fill="red" stroke="red" stroke-width="0.14" points="180.19,-714.69 185.92,-705.78 175.89,-709.18 180.19,-714.69"/>
</g>
<!-- &#45;34 -->
<g id="node34" class="node">
<title>&#45;34</title>
<polygon fill="lightgray" stroke="black" points="131.67,-126.5 103.67,-126.5 103.67,-108 131.67,-108 131.67,-126.5"/>
<text text-anchor="middle" x="117.67" y="-113.95" font-family="Times,serif" font-size="9.00">&#45;34</text>
</g>
<!-- 77760 -->
<g id="node58" class="node">
<title>77760</title>
<ellipse fill="white" stroke="black" cx="208.12" cy="-63.25" rx="27.22" ry="27.22"/>
<text text-anchor="middle" x="208.12" y="-59.95" font-family="Times,serif" font-size="9.00">77760</text>
</g>
<!-- &#45;34&#45;&gt;77760 -->
<g id="edge27" class="edge">
<title>&#45;34&#45;&gt;77760</title>
<path fill="none" stroke="red" stroke-width="0.31" stroke-dasharray="1,5" d="M132.1,-109.05C143.55,-102.06 160.46,-91.74 175.33,-82.66"/>
<polygon fill="red" stroke="red" stroke-width="0.31" points="177.14,-85.65 183.85,-77.46 173.49,-79.68 177.14,-85.65"/>
</g>
<!-- &#45;35 -->
<g id="node35" class="node">
<title>&#45;35</title>
<polygon fill="lightgray" stroke="black" points="41.22,-1760.5 13.22,-1760.5 13.22,-1742 41.22,-1742 41.22,-1760.5"/>
<text text-anchor="middle" x="27.22" y="-1747.95" font-family="Times,serif" font-size="9.00">&#45;35</text>
</g>
<!-- &#45;36 -->
<g id="node36" class="node">
<title>&#45;36</title>
<polygon fill="lightgray" stroke="black" points="131.67,-555.5 103.67,-555.5 103.67,-537 131.67,-537 131.67,-555.5"/>
<text text-anchor="middle" x="117.67" y="-542.95" font-family="Times,serif" font-size="9.00">&#45;36</text>
</g>
<!-- 0 -->
<g id="node38" class="node">
<title>0</title>
<ellipse fill="lightblue" stroke="black" cx="208.12" cy="-415.25" rx="14.5" ry="14.5"/>
<text text-anchor="middle" x="208.12" y="-411.95" font-family="Times,serif" font-size="9.00">0</text>
</g>
<!-- &#45;36&#45;&gt;0 -->
<g id="edge6" class="edge">
<title>&#45;36&#45;&gt;0</title>
<path fill="none" stroke="green" stroke-width="0.36" d="M122.97,-536.78C132.03,-517.35 154.47,-472.05 180.89,-439.25 183.28,-436.29 186.04,-433.36 188.85,-430.63"/>
<polygon fill="green" stroke="green" stroke-width="0.36" points="190.75,-433.62 195.79,-424.3 186.04,-428.45 190.75,-433.62"/>
</g>
<!-- 1 -->
<g id="node39" class="node">
<title>1</title>
<ellipse fill="lightblue" stroke="black" cx="208.12" cy="-499.25" rx="14.5" ry="14.5"/>
<text text-anchor="middle" x="208.12" y="-495.95" font-family="Times,serif" font-size="9.00">1</text>
</g>
<!-- &#45;36&#45;&gt;1 -->
<g id="edge3" class="edge">
<title>&#45;36&#45;&gt;1</title>
<path fill="none" stroke="green" stroke-width="0.5" d="M132.1,-539.11C146.32,-531.56 168.98,-519.52 185.67,-510.65"/>
<polygon fill="green" stroke="green" stroke-width="0.5" points="186.85,-513.99 194.03,-506.2 183.56,-507.8 186.85,-513.99"/>
</g>
<!-- 2 -->
<g id="node40" class="node">
<title>2</title>
<ellipse fill="lightblue" stroke="black" cx="208.12" cy="-785.25" rx="14.5" ry="14.5"/>
<text text-anchor="middle" x="208.12" y="-781.95" font-family="Times,serif" font-size="9.00">2</text>
</g>
<!-- &#45;36&#45;&gt;2 -->
<g id="edge2" class="edge">
<title>&#45;36&#45;&gt;2</title>
<path fill="none" stroke="green" stroke-width="0.48" d="M119.56,-555.57C122.89,-586.87 136.82,-690.27 180.89,-761.25 182.94,-764.54 185.55,-767.65 188.33,-770.48"/>
<polygon fill="green" stroke="green" stroke-width="0.48" points="185.51,-772.65 195.28,-776.75 190.2,-767.46 185.51,-772.65"/>
</g>
<!-- 3 -->
<g id="node41" class="node">
<title>3</title>
<ellipse fill="lightblue" stroke="black" cx="208.12" cy="-593.25" rx="14.5" ry="14.5"/>
<text text-anchor="middle" x="208.12" y="-589.95" font-family="Times,serif" font-size="9.00">3</text>
</g>
<!-- &#45;36&#45;&gt;3 -->
<g id="edge1" class="edge">
<title>&#45;36&#45;&gt;3</title>
<path fill="none" stroke="green" d="M132.1,-553.39C146.06,-560.8 168.13,-572.53 184.73,-581.35"/>
<polygon fill="green" stroke="green" points="182.89,-584.34 193.36,-585.94 186.17,-578.16 182.89,-584.34"/>
</g>
<!-- 4 -->
<g id="node42" class="node">
<title>4</title>
<ellipse fill="lightblue" stroke="black" cx="208.12" cy="-546.25" rx="14.5" ry="14.5"/>
<text text-anchor="middle" x="208.12" y="-542.95" font-family="Times,serif" font-size="9.00">4</text>
</g>
<!-- &#45;36&#45;&gt;4 -->
<g id="edge4" class="edge">
<title>&#45;36&#45;&gt;4</title>
<path fill="none" stroke="red" stroke-width="0.33" d="M132.1,-546.25C145.53,-546.25 166.48,-546.25 182.83,-546.25"/>
<polygon fill="red" stroke="red" stroke-width="0.33" points="182.77,-549.75 192.77,-546.25 182.77,-542.75 182.77,-549.75"/>
</g>
<!-- &#45;37 -->
<g id="node37" class="node">
<title>&#45;37</title>
<polygon fill="lightgray" stroke="black" points="41.22,-1797.5 13.22,-1797.5 13.22,-1779 41.22,-1779 41.22,-1797.5"/>
<text text-anchor="middle" x="27.22" y="-1784.95" font-family="Times,serif" font-size="9.00">&#45;37</text>
</g>
<!-- 0&#45;&gt;70724 -->
<g id="edge14" class="edge">
<title>0&#45;&gt;70724</title>
<path fill="none" stroke="red" stroke-width="0.6" stroke-dasharray="1,5" d="M222.94,-413.22C233.14,-411.72 247.51,-409.61 260.93,-407.63"/>
<polygon fill="red" stroke="red" stroke-width="0.6" points="261.1,-411.15 270.48,-406.23 260.08,-404.22 261.1,-411.15"/>
</g>
<!-- 2&#45;&gt;28170 -->
<g id="edge10" class="edge">
<title>2&#45;&gt;28170</title>
<path fill="none" stroke="green" stroke-width="0.22" stroke-dasharray="1,5" d="M221.79,-790.41C232.68,-794.84 248.91,-801.44 263.55,-807.4"/>
<polygon fill="green" stroke="green" stroke-width="0.22" points="261.98,-810.55 272.56,-811.07 264.62,-804.06 261.98,-810.55"/>
</g>
<!-- 2&#45;&gt;78543 -->
<g id="edge46" class="edge">
<title>2&#45;&gt;78543</title>
<path fill="none" stroke="green" stroke-width="0.64" d="M221.79,-779.23C232.73,-774.04 249.06,-766.28 263.76,-759.3"/>
<polygon fill="green" stroke="green" stroke-width="0.64" points="265.17,-762.51 272.71,-755.05 262.17,-756.18 265.17,-762.51"/>
</g>
<!-- 3&#45;&gt;50028 -->
<g id="edge8" class="edge">
<title>3&#45;&gt;50028</title>
<path fill="none" stroke="green" stroke-width="0.2" stroke-dasharray="1,5" d="M219.61,-584.23C231.91,-573.66 252.79,-555.73 269.84,-541.07"/>
<polygon fill="green" stroke="green" stroke-width="0.2" points="271.83,-543.98 277.13,-534.81 267.26,-538.67 271.83,-543.98"/>
</g>
<!-- 61945 -->
<g id="node70" class="node">
<title>61945</title>
<ellipse fill="white" stroke="black" cx="298.57" cy="-593.25" rx="27.22" ry="27.22"/>
<text text-anchor="middle" x="298.57" y="-589.95" font-family="Times,serif" font-size="9.00">61945</text>
</g>
<!-- 3&#45;&gt;61945 -->
<g id="edge24" class="edge">
<title>3&#45;&gt;61945</title>
<path fill="none" stroke="green" stroke-width="0.19" stroke-dasharray="1,5" d="M222.94,-593.25C233.16,-593.25 247.58,-593.25 261.02,-593.25"/>
<polygon fill="green" stroke="green" stroke-width="0.19" points="260.74,-596.75 270.74,-593.25 260.74,-589.75 260.74,-596.75"/>
</g>
<!-- 47497&#45;&gt;77760 -->
<g id="edge41" class="edge">
<title>47497&#45;&gt;77760</title>
<path fill="none" stroke="red" stroke-width="0.56" d="M145.21,-63.25C152.99,-63.25 161.65,-63.25 169.97,-63.25"/>
<polygon fill="red" stroke="red" stroke-width="0.56" points="169.75,-66.75 179.75,-63.25 169.75,-59.75 169.75,-66.75"/>
</g>
<!-- 60810 -->
<g id="node46" class="node">
<title>60810</title>
<ellipse fill="white" stroke="black" cx="27.22" cy="-1347.25" rx="27.22" ry="27.22"/>
<text text-anchor="middle" x="27.22" y="-1343.95" font-family="Times,serif" font-size="9.00">60810</text>
</g>
<!-- 60810&#45;&gt;83414 -->
<g id="edge44" class="edge">
<title>60810&#45;&gt;83414</title>
<path fill="none" stroke="green" stroke-width="0.23" d="M54.28,-1352.55C62.49,-1354.22 71.7,-1356.1 80.48,-1357.88"/>
<polygon fill="green" stroke="green" stroke-width="0.23" points="79.65,-1361.29 90.15,-1359.85 81.05,-1354.43 79.65,-1361.29"/>
</g>
<!-- 26524 -->
<g id="node49" class="node">
<title>26524</title>
<ellipse fill="white" stroke="black" cx="208.12" cy="-173.25" rx="27.22" ry="27.22"/>
<text text-anchor="middle" x="208.12" y="-169.95" font-family="Times,serif" font-size="9.00">26524</text>
</g>
<!-- 87839&#45;&gt;70724 -->
<g id="edge40" class="edge">
<title>87839&#45;&gt;70724</title>
<path fill="none" stroke="green" stroke-width="0.29" d="M232.36,-367.6C242.33,-372.9 254.16,-379.19 264.99,-384.94"/>
<polygon fill="green" stroke="green" stroke-width="0.29" points="263.32,-388.02 273.79,-389.62 266.6,-381.83 263.32,-388.02"/>
</g>
<!-- 48161 -->
<g id="node52" class="node">
<title>48161</title>
<ellipse fill="white" stroke="black" cx="117.67" cy="-283.25" rx="27.22" ry="27.22"/>
<text text-anchor="middle" x="117.67" y="-279.95" font-family="Times,serif" font-size="9.00">48161</text>
</g>
<!-- 48161&#45;&gt;57772 -->
<g id="edge35" class="edge">
<title>48161&#45;&gt;57772</title>
<path fill="none" stroke="red" stroke-width="0.32" stroke-dasharray="1,5" d="M145.21,-283.25C153.08,-283.25 161.85,-283.25 170.25,-283.25"/>
<polygon fill="red" stroke="red" stroke-width="0.32" points="170.12,-286.75 180.12,-283.25 170.12,-279.75 170.12,-286.75"/>
</g>
<!-- 42717 -->
<g id="node67" class="node">
<title>42717</title>
<ellipse fill="white" stroke="black" cx="298.57" cy="-283.25" rx="27.22" ry="27.22"/>
<text text-anchor="middle" x="298.57" y="-279.95" font-family="Times,serif" font-size="9.00">42717</text>
</g>
<!-- 57772&#45;&gt;42717 -->
<g id="edge13" class="edge">
<title>57772&#45;&gt;42717</title>
<path fill="none" stroke="green" stroke-width="0.41" stroke-dasharray="1,5" d="M235.66,-283.25C243.53,-283.25 252.29,-283.25 260.69,-283.25"/>
<polygon fill="green" stroke="green" stroke-width="0.41" points="260.43,-286.75 270.43,-283.25 260.43,-279.75 260.43,-286.75"/>
</g>
<!-- 86829&#45;&gt;26524 -->
<g id="edge45" class="edge">
<title>86829&#45;&gt;26524</title>
<path fill="none" stroke="green" stroke-width="0.45" d="M145.21,-173.25C152.99,-173.25 161.65,-173.25 169.97,-173.25"/>
<polygon fill="green" stroke="green" stroke-width="0.45" points="169.92,-176.75 179.92,-173.25 169.92,-169.75 169.92,-176.75"/>
</g>
<!-- 86829&#45;&gt;12496 -->
<g id="edge38" class="edge">
<title>86829&#45;&gt;12496</title>
<path fill="none" stroke="green" stroke-width="0.18" stroke-dasharray="1,5" d="M139.88,-157.23C151.37,-149.56 166.19,-141.2 180.89,-137.25 204.27,-130.98 212.44,-129.43 235.34,-137.25 287.43,-155.03 335.55,-198.6 363.34,-227.53"/>
<polygon fill="green" stroke="green" stroke-width="0.18" points="360.69,-229.82 370.1,-234.7 365.78,-225.02 360.69,-229.82"/>
</g>
<!-- 37938 -->
<g id="node55" class="node">
<title>37938</title>
<ellipse fill="white" stroke="black" cx="27.22" cy="-63.25" rx="27.22" ry="27.22"/>
<text text-anchor="middle" x="27.22" y="-59.95" font-family="Times,serif" font-size="9.00">37938</text>
</g>
<!-- 37938&#45;&gt;47497 -->
<g id="edge16" class="edge">
<title>37938&#45;&gt;47497</title>
<path fill="none" stroke="red" stroke-width="0.17" d="M54.76,-63.25C62.72,-63.25 71.59,-63.25 80.08,-63.25"/>
<polygon fill="red" stroke="red" stroke-width="0.17" points="79.9,-66.75 89.9,-63.25 79.9,-59.75 79.9,-66.75"/>
</g>
<!-- 77760&#45;&gt;50207 -->
<g id="edge19" class="edge">
<title>77760&#45;&gt;50207</title>
<path fill="none" stroke="green" stroke-width="0.18" d="M234.7,-55.44C243.32,-52.81 253.09,-49.83 262.32,-47.01"/>
<polygon fill="green" stroke="green" stroke-width="0.18" points="263.24,-50.39 271.78,-44.12 261.19,-43.69 263.24,-50.39"/>
</g>
<!-- 65609&#45;&gt;78543 -->
<g id="edge22" class="edge">
<title>65609&#45;&gt;78543</title>
<path fill="none" stroke="red" stroke-width="0.16" stroke-dasharray="1,5" d="M231.9,-703.16C242.32,-709.52 254.83,-717.16 266.13,-724.06"/>
<polygon fill="red" stroke="red" stroke-width="0.16" points="264.31,-727.04 274.66,-729.27 267.95,-721.07 264.31,-727.04"/>
</g>
<!-- 65609&#45;&gt;30932 -->
<g id="edge15" class="edge">
<title>65609&#45;&gt;30932</title>
<path fill="none" stroke="green" stroke-width="0.21" d="M234.7,-683.18C243.15,-681.17 252.72,-678.9 261.79,-676.74"/>
<polygon fill="green" stroke="green" stroke-width="0.21" points="262.51,-680.17 271.43,-674.46 260.89,-673.36 262.51,-680.17"/>
</g>
<!-- 51147&#45;&gt;57772 -->
<g id="edge20" class="edge">
<title>51147&#45;&gt;57772</title>
<path fill="none" stroke="red" stroke-width="0.33" d="M139.18,-338.55C150.82,-329.08 165.57,-317.07 178.35,-306.67"/>
<polygon fill="red" stroke="red" stroke-width="0.33" points="180.48,-309.45 186.02,-300.42 176.06,-304.02 180.48,-309.45"/>
</g>
<!-- 72399 -->
<g id="node62" class="node">
<title>72399</title>
<ellipse fill="white" stroke="black" cx="27.22" cy="-1842.25" rx="27.22" ry="27.22"/>
<text text-anchor="middle" x="27.22" y="-1838.95" font-family="Times,serif" font-size="9.00">72399</text>
</g>
<!-- 42717&#45;&gt;12496 -->
<g id="edge42" class="edge">
<title>42717&#45;&gt;12496</title>
<path fill="none" stroke="green" stroke-width="0.31" d="M324.67,-275.3C333.38,-272.55 343.3,-269.4 352.67,-266.44"/>
<polygon fill="green" stroke="green" stroke-width="0.31" points="353.61,-269.81 362.09,-263.46 351.5,-263.14 353.61,-269.81"/>
</g>
</g>
</svg>
