<?xml version="1.0" encoding="UTF-8" standalone="no"?>
<!DOCTYPE svg PUBLIC "-//W3C//DTD SVG 1.1//EN"
 "http://www.w3.org/Graphics/SVG/1.1/DTD/svg11.dtd">
<!-- Generated by graphviz version 12.2.1 (0)
 -->
<!-- Pages: 1 -->
<svg width="398pt" height="1266pt"
 viewBox="0.00 0.00 397.79 1266.47" xmlns="http://www.w3.org/2000/svg" xmlns:xlink="http://www.w3.org/1999/xlink">
<g id="graph0" class="graph" transform="scale(1 1) rotate(0) translate(4 1262.47)">
<polygon fill="white" stroke="none" points="-4,4 -4,-1262.47 393.79,-1262.47 393.79,4 -4,4"/>
<!-- &#45;1 -->
<g id="node1" class="node">
<title>&#45;1</title>
<polygon fill="lightgray" stroke="black" points="25.75,-159.47 2.25,-159.47 2.25,-140.97 25.75,-140.97 25.75,-159.47"/>
<text text-anchor="middle" x="14" y="-146.92" font-family="Times,serif" font-size="9.00">&#45;1</text>
</g>
<!-- 11500 -->
<g id="node49" class="node">
<title>11500</title>
<ellipse fill="white" stroke="black" cx="91.22" cy="-131.22" rx="27.22" ry="27.22"/>
<text text-anchor="middle" x="91.22" y="-127.92" font-family="Times,serif" font-size="9.00">11500</text>
</g>
<!-- &#45;1&#45;&gt;11500 -->
<g id="edge36" class="edge">
<title>&#45;1&#45;&gt;11500</title>
<path fill="none" stroke="green" stroke-width="0.19" stroke-dasharray="1,5" d="M26.1,-147.42C33.72,-145.5 44.29,-142.83 54.65,-140.21"/>
<polygon fill="green" stroke="green" stroke-width="0.19" points="55.31,-143.65 64.14,-137.81 53.59,-136.87 55.31,-143.65"/>
</g>
<!-- &#45;2 -->
<g id="node2" class="node">
<title>&#45;2</title>
<polygon fill="lightgray" stroke="black" points="193.42,-489.47 169.92,-489.47 169.92,-470.97 193.42,-470.97 193.42,-489.47"/>
<text text-anchor="middle" x="181.67" y="-476.92" font-family="Times,serif" font-size="9.00">&#45;2</text>
</g>
<!-- 0 -->
<g id="node38" class="node">
<title>0</title>
<ellipse fill="lightblue" stroke="black" cx="272.12" cy="-424.22" rx="14.5" ry="14.5"/>
<text text-anchor="middle" x="272.12" y="-420.92" font-family="Times,serif" font-size="9.00">0</text>
</g>
<!-- &#45;2&#45;&gt;0 -->
<g id="edge16" class="edge">
<title>&#45;2&#45;&gt;0</title>
<path fill="none" stroke="red" stroke-width="0.58" stroke-dasharray="1,5" d="M193.87,-473.13C208.07,-464.14 232.82,-448.47 250.48,-437.29"/>
<polygon fill="red" stroke="red" stroke-width="0.58" points="252.12,-440.39 258.7,-432.09 248.38,-434.48 252.12,-440.39"/>
</g>
<!-- &#45;3 -->
<g id="node3" class="node">
<title>&#45;3</title>
<polygon fill="lightgray" stroke="black" points="25.75,-814.47 2.25,-814.47 2.25,-795.97 25.75,-795.97 25.75,-814.47"/>
<text text-anchor="middle" x="14" y="-801.92" font-family="Times,serif" font-size="9.00">&#45;3</text>
</g>
<!-- &#45;4 -->
<g id="node4" class="node">
<title>&#45;4</title>
<polygon fill="lightgray" stroke="black" points="25.75,-231.47 2.25,-231.47 2.25,-212.97 25.75,-212.97 25.75,-231.47"/>
<text text-anchor="middle" x="14" y="-218.92" font-family="Times,serif" font-size="9.00">&#45;4</text>
</g>
<!-- &#45;4&#45;&gt;0 -->
<g id="edge12" class="edge">
<title>&#45;4&#45;&gt;0</title>
<path fill="none" stroke="red" stroke-width="0.23" stroke-dasharray="1,5" d="M26.14,-219.57C58.42,-212.58 153.24,-197.1 208.89,-241.22 209.71,-241.87 246.65,-351.47 263.22,-400.73"/>
<polygon fill="red" stroke="red" stroke-width="0.23" points="259.9,-401.83 266.4,-410.19 266.53,-399.6 259.9,-401.83"/>
</g>
<!-- 4 -->
<g id="node42" class="node">
<title>4</title>
<ellipse fill="lightblue" stroke="black" cx="181.67" cy="-1058.22" rx="14.5" ry="14.5"/>
<text text-anchor="middle" x="181.67" y="-1054.92" font-family="Times,serif" font-size="9.00">4</text>
</g>
<!-- &#45;4&#45;&gt;4 -->
<g id="edge1" class="edge">
<title>&#45;4&#45;&gt;4</title>
<path fill="none" stroke="green" stroke-width="0.29" stroke-dasharray="1,5" d="M17.03,-231.88C19.94,-246.12 25.25,-273.6 28,-297.22 35.72,-363.67 31.3,-839.86 64,-898.22 78.42,-923.97 100.27,-912.98 118.45,-936.22 146,-971.47 130.71,-992.3 154.45,-1030.22 156.87,-1034.1 159.88,-1037.91 162.99,-1041.41"/>
<polygon fill="green" stroke="green" stroke-width="0.29" points="160.43,-1043.79 169.88,-1048.58 165.48,-1038.95 160.43,-1043.79"/>
</g>
<!-- 17543 -->
<g id="node45" class="node">
<title>17543</title>
<ellipse fill="white" stroke="black" cx="272.12" cy="-27.22" rx="27.22" ry="27.22"/>
<text text-anchor="middle" x="272.12" y="-23.92" font-family="Times,serif" font-size="9.00">17543</text>
</g>
<!-- &#45;4&#45;&gt;17543 -->
<g id="edge31" class="edge">
<title>&#45;4&#45;&gt;17543</title>
<path fill="none" stroke="green" stroke-width="0.2" stroke-dasharray="1,5" d="M17.9,-212.52C25.88,-186.25 48.61,-114.39 64,-95.22 94.21,-57.61 108.77,-50.72 154.45,-35.22 180.29,-26.46 211.16,-24.69 234.65,-24.99"/>
<polygon fill="green" stroke="green" stroke-width="0.2" points="234.49,-28.49 244.57,-25.25 234.67,-21.49 234.49,-28.49"/>
</g>
<!-- 17963 -->
<g id="node48" class="node">
<title>17963</title>
<ellipse fill="white" stroke="black" cx="91.22" cy="-972.22" rx="27.22" ry="27.22"/>
<text text-anchor="middle" x="91.22" y="-968.92" font-family="Times,serif" font-size="9.00">17963</text>
</g>
<!-- &#45;4&#45;&gt;17963 -->
<g id="edge33" class="edge">
<title>&#45;4&#45;&gt;17963</title>
<path fill="none" stroke="red" stroke-width="0.47" d="M17.04,-231.88C19.96,-246.11 25.29,-273.59 28,-297.22 44.08,-437.42 20.57,-796.96 64,-931.22 65.19,-934.9 66.79,-938.56 68.61,-942.11"/>
<polygon fill="red" stroke="red" stroke-width="0.47" points="65.45,-943.63 73.49,-950.53 71.51,-940.12 65.45,-943.63"/>
</g>
<!-- &#45;4&#45;&gt;11500 -->
<g id="edge30" class="edge">
<title>&#45;4&#45;&gt;11500</title>
<path fill="none" stroke="green" stroke-width="0.32" d="M23.05,-212.49C33.37,-200 51.71,-177.81 66.63,-159.77"/>
<polygon fill="green" stroke="green" stroke-width="0.32" points="69.22,-162.13 72.89,-152.19 63.82,-157.67 69.22,-162.13"/>
</g>
<!-- &#45;5 -->
<g id="node5" class="node">
<title>&#45;5</title>
<polygon fill="lightgray" stroke="black" points="25.75,-851.47 2.25,-851.47 2.25,-832.97 25.75,-832.97 25.75,-851.47"/>
<text text-anchor="middle" x="14" y="-838.92" font-family="Times,serif" font-size="9.00">&#45;5</text>
</g>
<!-- &#45;6 -->
<g id="node6" class="node">
<title>&#45;6</title>
<polygon fill="lightgray" stroke="black" points="283.87,-1146.47 260.37,-1146.47 260.37,-1127.97 283.87,-1127.97 283.87,-1146.47"/>
<text text-anchor="middle" x="272.12" y="-1133.92" font-family="Times,serif" font-size="9.00">&#45;6</text>
</g>
<!-- 1 -->
<g id="node39" class="node">
<title>1</title>
<ellipse fill="lightblue" stroke="black" cx="362.57" cy="-777.22" rx="14.5" ry="14.5"/>
<text text-anchor="middle" x="362.57" y="-773.92" font-family="Times,serif" font-size="9.00">1</text>
</g>
<!-- &#45;6&#45;&gt;1 -->
<g id="edge22" class="edge">
<title>&#45;6&#45;&gt;1</title>
<path fill="none" stroke="green" stroke-width="0.17" stroke-dasharray="1,5" d="M284.15,-1130.2C289.57,-1126.17 295.69,-1120.65 299.34,-1114.22 358.57,-1009.98 363.11,-861.04 362.36,-802.36"/>
<polygon fill="green" stroke="green" stroke-width="0.17" points="365.86,-802.35 362.16,-792.42 358.86,-802.49 365.86,-802.35"/>
</g>
<!-- 19785 -->
<g id="node50" class="node">
<title>19785</title>
<ellipse fill="white" stroke="black" cx="362.57" cy="-1155.22" rx="27.22" ry="27.22"/>
<text text-anchor="middle" x="362.57" y="-1151.92" font-family="Times,serif" font-size="9.00">19785</text>
</g>
<!-- &#45;6&#45;&gt;19785 -->
<g id="edge44" class="edge">
<title>&#45;6&#45;&gt;19785</title>
<path fill="none" stroke="green" stroke-width="0.11" d="M284.32,-1139.5C294.74,-1141.62 310.86,-1144.9 325.67,-1147.92"/>
<polygon fill="green" stroke="green" stroke-width="0.11" points="324.97,-1151.35 335.47,-1149.91 326.37,-1144.49 324.97,-1151.35"/>
</g>
<!-- &#45;7 -->
<g id="node7" class="node">
<title>&#45;7</title>
<polygon fill="lightgray" stroke="black" points="25.75,-888.47 2.25,-888.47 2.25,-869.97 25.75,-869.97 25.75,-888.47"/>
<text text-anchor="middle" x="14" y="-875.92" font-family="Times,serif" font-size="9.00">&#45;7</text>
</g>
<!-- &#45;8 -->
<g id="node8" class="node">
<title>&#45;8</title>
<polygon fill="lightgray" stroke="black" points="25.75,-122.47 2.25,-122.47 2.25,-103.97 25.75,-103.97 25.75,-122.47"/>
<text text-anchor="middle" x="14" y="-109.92" font-family="Times,serif" font-size="9.00">&#45;8</text>
</g>
<!-- &#45;8&#45;&gt;11500 -->
<g id="edge52" class="edge">
<title>&#45;8&#45;&gt;11500</title>
<path fill="none" stroke="green" stroke-width="0.44" d="M26.1,-115.88C33.64,-117.68 44.07,-120.18 54.33,-122.64"/>
<polygon fill="green" stroke="green" stroke-width="0.44" points="53.23,-125.97 63.77,-124.89 54.86,-119.16 53.23,-125.97"/>
</g>
<!-- &#45;9 -->
<g id="node9" class="node">
<title>&#45;9</title>
<polygon fill="lightgray" stroke="black" points="25.75,-925.47 2.25,-925.47 2.25,-906.97 25.75,-906.97 25.75,-925.47"/>
<text text-anchor="middle" x="14" y="-912.92" font-family="Times,serif" font-size="9.00">&#45;9</text>
</g>
<!-- &#45;10 -->
<g id="node10" class="node">
<title>&#45;10</title>
<polygon fill="lightgray" stroke="black" points="105.22,-740.47 77.22,-740.47 77.22,-721.97 105.22,-721.97 105.22,-740.47"/>
<text text-anchor="middle" x="91.22" y="-727.92" font-family="Times,serif" font-size="9.00">&#45;10</text>
</g>
<!-- 3 -->
<g id="node41" class="node">
<title>3</title>
<ellipse fill="lightblue" stroke="black" cx="181.67" cy="-708.22" rx="14.5" ry="14.5"/>
<text text-anchor="middle" x="181.67" y="-704.92" font-family="Times,serif" font-size="9.00">3</text>
</g>
<!-- &#45;10&#45;&gt;3 -->
<g id="edge18" class="edge">
<title>&#45;10&#45;&gt;3</title>
<path fill="none" stroke="green" stroke-width="0.53" stroke-dasharray="1,5" d="M105.66,-727.73C119.16,-724.22 140.28,-718.73 156.67,-714.46"/>
<polygon fill="green" stroke="green" stroke-width="0.53" points="157.54,-717.85 166.34,-711.95 155.78,-711.08 157.54,-717.85"/>
</g>
<!-- &#45;11 -->
<g id="node11" class="node">
<title>&#45;11</title>
<polygon fill="lightgray" stroke="black" points="105.22,-666.47 77.22,-666.47 77.22,-647.97 105.22,-647.97 105.22,-666.47"/>
<text text-anchor="middle" x="91.22" y="-653.92" font-family="Times,serif" font-size="9.00">&#45;11</text>
</g>
<!-- 19714 -->
<g id="node43" class="node">
<title>19714</title>
<ellipse fill="white" stroke="black" cx="181.67" cy="-277.22" rx="27.22" ry="27.22"/>
<text text-anchor="middle" x="181.67" y="-273.92" font-family="Times,serif" font-size="9.00">19714</text>
</g>
<!-- &#45;11&#45;&gt;19714 -->
<g id="edge47" class="edge">
<title>&#45;11&#45;&gt;19714</title>
<path fill="none" stroke="red" stroke-width="0.74" d="M93.68,-647.59C99.53,-609.54 122.57,-466.15 154.45,-351.22 157.97,-338.53 162.57,-324.86 166.94,-312.78"/>
<polygon fill="red" stroke="red" stroke-width="0.74" points="170.12,-314.27 170.29,-303.68 163.55,-311.85 170.12,-314.27"/>
</g>
<!-- 16265 -->
<g id="node46" class="node">
<title>16265</title>
<ellipse fill="white" stroke="black" cx="272.12" cy="-750.22" rx="27.22" ry="27.22"/>
<text text-anchor="middle" x="272.12" y="-746.92" font-family="Times,serif" font-size="9.00">16265</text>
</g>
<!-- &#45;11&#45;&gt;16265 -->
<g id="edge39" class="edge">
<title>&#45;11&#45;&gt;16265</title>
<path fill="none" stroke="green" stroke-width="0.19" stroke-dasharray="1,5" d="M105.72,-658C128.43,-659.82 175.12,-665.82 208.89,-685.22 224.38,-694.12 238.43,-708.02 249.26,-720.69"/>
<polygon fill="green" stroke="green" stroke-width="0.19" points="246.33,-722.64 255.38,-728.15 251.74,-718.2 246.33,-722.64"/>
</g>
<!-- &#45;12 -->
<g id="node12" class="node">
<title>&#45;12</title>
<polygon fill="lightgray" stroke="black" points="105.22,-1035.47 77.22,-1035.47 77.22,-1016.97 105.22,-1016.97 105.22,-1035.47"/>
<text text-anchor="middle" x="91.22" y="-1022.92" font-family="Times,serif" font-size="9.00">&#45;12</text>
</g>
<!-- &#45;12&#45;&gt;4 -->
<g id="edge5" class="edge">
<title>&#45;12&#45;&gt;4</title>
<path fill="none" stroke="green" stroke-width="0.14" stroke-dasharray="1,5" d="M105.66,-1031.08C119.58,-1036.12 141.6,-1044.09 158.18,-1050.09"/>
<polygon fill="green" stroke="green" stroke-width="0.14" points="156.9,-1053.35 167.49,-1053.46 159.28,-1046.76 156.9,-1053.35"/>
</g>
<!-- &#45;13 -->
<g id="node13" class="node">
<title>&#45;13</title>
<polygon fill="lightgray" stroke="black" points="28,-962.47 0,-962.47 0,-943.97 28,-943.97 28,-962.47"/>
<text text-anchor="middle" x="14" y="-949.92" font-family="Times,serif" font-size="9.00">&#45;13</text>
</g>
<!-- &#45;14 -->
<g id="node14" class="node">
<title>&#45;14</title>
<polygon fill="lightgray" stroke="black" points="105.22,-268.47 77.22,-268.47 77.22,-249.97 105.22,-249.97 105.22,-268.47"/>
<text text-anchor="middle" x="91.22" y="-255.92" font-family="Times,serif" font-size="9.00">&#45;14</text>
</g>
<!-- &#45;14&#45;&gt;1 -->
<g id="edge4" class="edge">
<title>&#45;14&#45;&gt;1</title>
<path fill="none" stroke="red" stroke-width="0.52" d="M96.97,-249.84C102.46,-238.82 111.61,-219.91 118.45,-203.22 136.66,-158.73 115.2,-128.99 154.45,-101.22 174.2,-87.25 187.96,-89.09 208.89,-101.22 278.89,-141.81 273.91,-182.41 299.34,-259.22 359.46,-440.79 362.74,-675.26 362.04,-751.83"/>
<polygon fill="red" stroke="red" stroke-width="0.52" points="358.54,-751.51 361.92,-761.55 365.54,-751.6 358.54,-751.51"/>
</g>
<!-- &#45;14&#45;&gt;3 -->
<g id="edge35" class="edge">
<title>&#45;14&#45;&gt;3</title>
<path fill="none" stroke="red" stroke-width="0.16" stroke-dasharray="1,5" d="M93.62,-268.75C99.69,-309.74 124.82,-475.14 154.45,-609.22 160.17,-635.12 168.13,-664.46 173.77,-684.43"/>
<polygon fill="red" stroke="red" stroke-width="0.16" points="170.39,-685.32 176.5,-693.98 177.12,-683.4 170.39,-685.32"/>
</g>
<!-- &#45;15 -->
<g id="node15" class="node">
<title>&#45;15</title>
<polygon fill="lightgray" stroke="black" points="28,-999.47 0,-999.47 0,-980.97 28,-980.97 28,-999.47"/>
<text text-anchor="middle" x="14" y="-986.92" font-family="Times,serif" font-size="9.00">&#45;15</text>
</g>
<!-- &#45;16 -->
<g id="node16" class="node">
<title>&#45;16</title>
<polygon fill="lightgray" stroke="black" points="28,-1036.47 0,-1036.47 0,-1017.97 28,-1017.97 28,-1036.47"/>
<text text-anchor="middle" x="14" y="-1023.92" font-family="Times,serif" font-size="9.00">&#45;16</text>
</g>
<!-- &#45;17 -->
<g id="node17" class="node">
<title>&#45;17</title>
<polygon fill="lightgray" stroke="black" points="195.67,-600.47 167.67,-600.47 167.67,-581.97 195.67,-581.97 195.67,-600.47"/>
<text text-anchor="middle" x="181.67" y="-587.92" font-family="Times,serif" font-size="9.00">&#45;17</text>
</g>
<!-- &#45;17&#45;&gt;0 -->
<g id="edge40" class="edge">
<title>&#45;17&#45;&gt;0</title>
<path fill="none" stroke="red" stroke-width="0.17" d="M196.12,-583.56C200.63,-580.49 205.4,-576.63 208.89,-572.22 239.25,-533.97 257.2,-478.76 265.51,-447.72"/>
<polygon fill="red" stroke="red" stroke-width="0.17" points="268.8,-448.98 267.9,-438.42 262.02,-447.24 268.8,-448.98"/>
</g>
<!-- &#45;18 -->
<g id="node18" class="node">
<title>&#45;18</title>
<polygon fill="lightgray" stroke="black" points="195.67,-563.47 167.67,-563.47 167.67,-544.97 195.67,-544.97 195.67,-563.47"/>
<text text-anchor="middle" x="181.67" y="-550.92" font-family="Times,serif" font-size="9.00">&#45;18</text>
</g>
<!-- &#45;18&#45;&gt;0 -->
<g id="edge17" class="edge">
<title>&#45;18&#45;&gt;0</title>
<path fill="none" stroke="green" stroke-width="0.34" d="M196.12,-546.15C200.53,-543.09 205.23,-539.34 208.89,-535.22 232.69,-508.49 251.29,-471.13 261.74,-447.31"/>
<polygon fill="green" stroke="green" stroke-width="0.34" points="264.93,-448.74 265.63,-438.17 258.49,-446 264.93,-448.74"/>
</g>
<!-- &#45;19 -->
<g id="node19" class="node">
<title>&#45;19</title>
<polygon fill="lightgray" stroke="black" points="28,-1073.47 0,-1073.47 0,-1054.97 28,-1054.97 28,-1073.47"/>
<text text-anchor="middle" x="14" y="-1060.92" font-family="Times,serif" font-size="9.00">&#45;19</text>
</g>
<!-- &#45;20 -->
<g id="node20" class="node">
<title>&#45;20</title>
<polygon fill="lightgray" stroke="black" points="28,-1110.47 0,-1110.47 0,-1091.97 28,-1091.97 28,-1110.47"/>
<text text-anchor="middle" x="14" y="-1097.92" font-family="Times,serif" font-size="9.00">&#45;20</text>
</g>
<!-- &#45;21 -->
<g id="node21" class="node">
<title>&#45;21</title>
<polygon fill="lightgray" stroke="black" points="28,-1147.47 0,-1147.47 0,-1128.97 28,-1128.97 28,-1147.47"/>
<text text-anchor="middle" x="14" y="-1134.92" font-family="Times,serif" font-size="9.00">&#45;21</text>
</g>
<!-- &#45;22 -->
<g id="node22" class="node">
<title>&#45;22</title>
<polygon fill="lightgray" stroke="black" points="286.12,-1183.47 258.12,-1183.47 258.12,-1164.97 286.12,-1164.97 286.12,-1183.47"/>
<text text-anchor="middle" x="272.12" y="-1170.92" font-family="Times,serif" font-size="9.00">&#45;22</text>
</g>
<!-- &#45;22&#45;&gt;19785 -->
<g id="edge48" class="edge">
<title>&#45;22&#45;&gt;19785</title>
<path fill="none" stroke="green" stroke-width="0.26" d="M286.55,-1171.34C296.97,-1169.1 311.92,-1165.89 325.74,-1162.92"/>
<polygon fill="green" stroke="green" stroke-width="0.26" points="326.09,-1166.42 335.13,-1160.9 324.62,-1159.58 326.09,-1166.42"/>
</g>
<!-- &#45;23 -->
<g id="node23" class="node">
<title>&#45;23</title>
<polygon fill="lightgray" stroke="black" points="28,-1184.47 0,-1184.47 0,-1165.97 28,-1165.97 28,-1184.47"/>
<text text-anchor="middle" x="14" y="-1171.92" font-family="Times,serif" font-size="9.00">&#45;23</text>
</g>
<!-- &#45;24 -->
<g id="node24" class="node">
<title>&#45;24</title>
<polygon fill="lightgray" stroke="black" points="195.67,-526.47 167.67,-526.47 167.67,-507.97 195.67,-507.97 195.67,-526.47"/>
<text text-anchor="middle" x="181.67" y="-513.92" font-family="Times,serif" font-size="9.00">&#45;24</text>
</g>
<!-- &#45;24&#45;&gt;0 -->
<g id="edge3" class="edge">
<title>&#45;24&#45;&gt;0</title>
<path fill="none" stroke="red" stroke-width="0.4" d="M195.97,-508.54C200.27,-505.49 204.94,-501.9 208.89,-498.22 226.87,-481.5 244.62,-459.72 256.53,-444.13"/>
<polygon fill="red" stroke="red" stroke-width="0.4" points="259.26,-446.33 262.47,-436.24 253.66,-442.13 259.26,-446.33"/>
</g>
<!-- &#45;25 -->
<g id="node25" class="node">
<title>&#45;25</title>
<polygon fill="lightgray" stroke="black" points="28,-777.47 0,-777.47 0,-758.97 28,-758.97 28,-777.47"/>
<text text-anchor="middle" x="14" y="-764.92" font-family="Times,serif" font-size="9.00">&#45;25</text>
</g>
<!-- &#45;25&#45;&gt;0 -->
<g id="edge9" class="edge">
<title>&#45;25&#45;&gt;0</title>
<path fill="none" stroke="green" stroke-width="0.27" stroke-dasharray="1,5" d="M15.61,-758.7C17.69,-734.64 26.63,-671.09 64,-639.22 114.04,-596.56 159.68,-652.85 208.89,-609.22 255.83,-567.62 267.42,-489.46 270.24,-449.36"/>
<polygon fill="green" stroke="green" stroke-width="0.27" points="273.73,-449.72 270.81,-439.53 266.74,-449.32 273.73,-449.72"/>
</g>
<!-- &#45;25&#45;&gt;3 -->
<g id="edge19" class="edge">
<title>&#45;25&#45;&gt;3</title>
<path fill="none" stroke="red" stroke-width="0.27" stroke-dasharray="1,5" d="M28.2,-767.49C48.33,-765.99 87.61,-761.62 118.45,-749.22 134.13,-742.92 150.02,-732.37 161.82,-723.55"/>
<polygon fill="red" stroke="red" stroke-width="0.27" points="163.88,-726.38 169.64,-717.49 159.59,-720.84 163.88,-726.38"/>
</g>
<!-- &#45;25&#45;&gt;17963 -->
<g id="edge53" class="edge">
<title>&#45;25&#45;&gt;17963</title>
<path fill="none" stroke="green" stroke-width="0.25" d="M22.58,-777.89C24.57,-780.77 26.56,-784.02 28,-787.22 55.05,-847.39 37.89,-870.64 64,-931.22 65.49,-934.69 67.26,-938.19 69.17,-941.61"/>
<polygon fill="green" stroke="green" stroke-width="0.25" points="66.09,-943.29 74.23,-950.08 72.1,-939.7 66.09,-943.29"/>
</g>
<!-- &#45;26 -->
<g id="node26" class="node">
<title>&#45;26</title>
<polygon fill="lightgray" stroke="black" points="105.22,-852.47 77.22,-852.47 77.22,-833.97 105.22,-833.97 105.22,-852.47"/>
<text text-anchor="middle" x="91.22" y="-839.92" font-family="Times,serif" font-size="9.00">&#45;26</text>
</g>
<!-- 19940 -->
<g id="node44" class="node">
<title>19940</title>
<ellipse fill="white" stroke="black" cx="181.67" cy="-877.22" rx="27.22" ry="27.22"/>
<text text-anchor="middle" x="181.67" y="-873.92" font-family="Times,serif" font-size="9.00">19940</text>
</g>
<!-- &#45;26&#45;&gt;19940 -->
<g id="edge55" class="edge">
<title>&#45;26&#45;&gt;19940</title>
<path fill="none" stroke="red" stroke-width="0.29" d="M105.66,-848.39C116.42,-852.52 132,-858.51 146.18,-863.97"/>
<polygon fill="red" stroke="red" stroke-width="0.29" points="144.69,-867.14 155.28,-867.46 147.2,-860.61 144.69,-867.14"/>
</g>
<!-- &#45;26&#45;&gt;16265 -->
<g id="edge54" class="edge">
<title>&#45;26&#45;&gt;16265</title>
<path fill="none" stroke="red" stroke-width="0.7" d="M105.71,-851.71C110.02,-854.75 114.65,-858.38 118.45,-862.22 137.94,-881.96 129.81,-900.46 154.45,-913.22 175.93,-924.36 188.96,-926.95 208.89,-913.22 249.42,-885.31 263.57,-827.18 268.5,-788.43"/>
<polygon fill="red" stroke="red" stroke-width="0.7" points="271.96,-788.95 269.59,-778.62 265.01,-788.17 271.96,-788.95"/>
</g>
<!-- &#45;27 -->
<g id="node27" class="node">
<title>&#45;27</title>
<polygon fill="lightgray" stroke="black" points="195.67,-415.47 167.67,-415.47 167.67,-396.97 195.67,-396.97 195.67,-415.47"/>
<text text-anchor="middle" x="181.67" y="-402.92" font-family="Times,serif" font-size="9.00">&#45;27</text>
</g>
<!-- &#45;27&#45;&gt;0 -->
<g id="edge8" class="edge">
<title>&#45;27&#45;&gt;0</title>
<path fill="none" stroke="green" stroke-width="0.43" stroke-dasharray="1,5" d="M196.1,-408.96C209.74,-411.73 231.13,-416.09 247.59,-419.44"/>
<polygon fill="green" stroke="green" stroke-width="0.43" points="246.42,-422.77 256.92,-421.33 247.82,-415.91 246.42,-422.77"/>
</g>
<!-- &#45;28 -->
<g id="node28" class="node">
<title>&#45;28</title>
<polygon fill="lightgray" stroke="black" points="105.22,-814.47 77.22,-814.47 77.22,-795.97 105.22,-795.97 105.22,-814.47"/>
<text text-anchor="middle" x="91.22" y="-801.92" font-family="Times,serif" font-size="9.00">&#45;28</text>
</g>
<!-- &#45;28&#45;&gt;3 -->
<g id="edge2" class="edge">
<title>&#45;28&#45;&gt;3</title>
<path fill="none" stroke="red" stroke-width="0.58" stroke-dasharray="1,5" d="M104.14,-795.59C108.78,-791.63 114.04,-786.89 118.45,-782.22 136.28,-763.36 137.56,-755.94 154.45,-736.22 157.29,-732.9 160.4,-729.45 163.45,-726.14"/>
<polygon fill="red" stroke="red" stroke-width="0.58" points="165.84,-728.71 170.14,-719.03 160.74,-723.92 165.84,-728.71"/>
</g>
<!-- &#45;28&#45;&gt;16265 -->
<g id="edge24" class="edge">
<title>&#45;28&#45;&gt;16265</title>
<path fill="none" stroke="red" stroke-width="0.19" stroke-dasharray="1,5" d="M105.37,-795.71C117.51,-787.4 136.35,-775.69 154.45,-769.22 180.26,-760.01 210.89,-755.24 234.29,-752.78"/>
<polygon fill="red" stroke="red" stroke-width="0.19" points="234.57,-756.27 244.2,-751.84 233.91,-749.3 234.57,-756.27"/>
</g>
<!-- 16778 -->
<g id="node47" class="node">
<title>16778</title>
<ellipse fill="white" stroke="black" cx="181.67" cy="-805.22" rx="27.22" ry="27.22"/>
<text text-anchor="middle" x="181.67" y="-801.92" font-family="Times,serif" font-size="9.00">16778</text>
</g>
<!-- &#45;28&#45;&gt;16778 -->
<g id="edge26" class="edge">
<title>&#45;28&#45;&gt;16778</title>
<path fill="none" stroke="red" stroke-width="0.28" d="M105.66,-805.22C115.9,-805.22 130.52,-805.22 144.14,-805.22"/>
<polygon fill="red" stroke="red" stroke-width="0.28" points="143.84,-808.72 153.84,-805.22 143.84,-801.72 143.84,-808.72"/>
</g>
<!-- 7791 -->
<g id="node51" class="node">
<title>7791</title>
<ellipse fill="white" stroke="black" cx="181.67" cy="-134.22" rx="24.04" ry="24.04"/>
<text text-anchor="middle" x="181.67" y="-130.92" font-family="Times,serif" font-size="9.00">7791</text>
</g>
<!-- &#45;28&#45;&gt;7791 -->
<g id="edge50" class="edge">
<title>&#45;28&#45;&gt;7791</title>
<path fill="none" stroke="red" stroke-width="0.42" d="M98.03,-795.73C104.32,-784.91 114.04,-766.49 118.45,-749.22 150.49,-623.67 108,-288.19 154.45,-167.22 155.41,-164.71 156.64,-162.24 158.03,-159.85"/>
<polygon fill="red" stroke="red" stroke-width="0.42" points="160.9,-161.87 163.69,-151.65 155.13,-157.9 160.9,-161.87"/>
</g>
<!-- &#45;29 -->
<g id="node29" class="node">
<title>&#45;29</title>
<polygon fill="lightgray" stroke="black" points="195.67,-378.47 167.67,-378.47 167.67,-359.97 195.67,-359.97 195.67,-378.47"/>
<text text-anchor="middle" x="181.67" y="-365.92" font-family="Times,serif" font-size="9.00">&#45;29</text>
</g>
<!-- &#45;29&#45;&gt;0 -->
<g id="edge10" class="edge">
<title>&#45;29&#45;&gt;0</title>
<path fill="none" stroke="red" stroke-width="0.15" d="M196.1,-377.58C210.62,-386.6 233.92,-401.09 250.71,-411.53"/>
<polygon fill="red" stroke="red" stroke-width="0.15" points="248.73,-414.42 259.07,-416.73 252.43,-408.48 248.73,-414.42"/>
</g>
<!-- &#45;30 -->
<g id="node30" class="node">
<title>&#45;30</title>
<polygon fill="lightgray" stroke="black" points="28,-324.47 0,-324.47 0,-305.97 28,-305.97 28,-324.47"/>
<text text-anchor="middle" x="14" y="-311.92" font-family="Times,serif" font-size="9.00">&#45;30</text>
</g>
<!-- &#45;30&#45;&gt;0 -->
<g id="edge7" class="edge">
<title>&#45;30&#45;&gt;0</title>
<path fill="none" stroke="green" stroke-width="0.24" stroke-dasharray="1,5" d="M28.27,-314.75C61.21,-314.16 148.43,-316.26 208.89,-351.22 230.3,-363.6 247.81,-386.18 258.74,-402.97"/>
<polygon fill="green" stroke="green" stroke-width="0.24" points="255.67,-404.65 263.93,-411.28 261.61,-400.95 255.67,-404.65"/>
</g>
<!-- &#45;30&#45;&gt;1 -->
<g id="edge23" class="edge">
<title>&#45;30&#45;&gt;1</title>
<path fill="none" stroke="green" stroke-width="0.16" stroke-dasharray="1,5" d="M15.24,-324.82C17.47,-411.31 35,-1054.01 64,-1081.22 110.97,-1125.28 151.54,-1110.52 208.89,-1081.22 316.81,-1026.1 349.81,-864.06 358.66,-801.89"/>
<polygon fill="green" stroke="green" stroke-width="0.16" points="362.12,-802.43 359.97,-792.06 355.18,-801.51 362.12,-802.43"/>
</g>
<!-- &#45;30&#45;&gt;19714 -->
<g id="edge42" class="edge">
<title>&#45;30&#45;&gt;19714</title>
<path fill="none" stroke="green" stroke-width="0.13" d="M28.28,-312.18C53.33,-306.43 108.35,-293.81 144.97,-285.41"/>
<polygon fill="green" stroke="green" stroke-width="0.13" points="145.6,-288.86 154.57,-283.21 144.04,-282.04 145.6,-288.86"/>
</g>
<!-- &#45;30&#45;&gt;11500 -->
<g id="edge37" class="edge">
<title>&#45;30&#45;&gt;11500</title>
<path fill="none" stroke="red" stroke-width="0.21" stroke-dasharray="1,5" d="M17.04,-305.82C22.48,-281.79 38.64,-216.58 64,-167.22 65.14,-165 66.42,-162.76 67.77,-160.54"/>
<polygon fill="red" stroke="red" stroke-width="0.21" points="70.5,-162.76 73.09,-152.49 64.66,-158.9 70.5,-162.76"/>
</g>
<!-- &#45;31 -->
<g id="node31" class="node">
<title>&#45;31</title>
<polygon fill="lightgray" stroke="black" points="105.22,-194.47 77.22,-194.47 77.22,-175.97 105.22,-175.97 105.22,-194.47"/>
<text text-anchor="middle" x="91.22" y="-181.92" font-family="Times,serif" font-size="9.00">&#45;31</text>
</g>
<!-- &#45;31&#45;&gt;19714 -->
<g id="edge56" class="edge">
<title>&#45;31&#45;&gt;19714</title>
<path fill="none" stroke="green" stroke-width="0.28" d="M101.36,-194.72C113.98,-207.85 137.25,-232.06 155.34,-250.87"/>
<polygon fill="green" stroke="green" stroke-width="0.28" points="152.48,-252.95 161.93,-257.73 157.53,-248.1 152.48,-252.95"/>
</g>
<!-- &#45;31&#45;&gt;17543 -->
<g id="edge49" class="edge">
<title>&#45;31&#45;&gt;17543</title>
<path fill="none" stroke="green" stroke-width="0.11" d="M105.53,-178.35C110.13,-175.44 115,-171.68 118.45,-167.22 147.12,-130.21 121.16,-101.15 154.45,-68.22 176.14,-46.76 209.71,-36.49 235.28,-31.6"/>
<polygon fill="green" stroke="green" stroke-width="0.11" points="235.57,-35.11 244.83,-29.96 234.38,-28.21 235.57,-35.11"/>
</g>
<!-- &#45;32 -->
<g id="node32" class="node">
<title>&#45;32</title>
<polygon fill="lightgray" stroke="black" points="28,-1221.47 0,-1221.47 0,-1202.97 28,-1202.97 28,-1221.47"/>
<text text-anchor="middle" x="14" y="-1208.92" font-family="Times,serif" font-size="9.00">&#45;32</text>
</g>
<!-- &#45;33 -->
<g id="node33" class="node">
<title>&#45;33</title>
<polygon fill="lightgray" stroke="black" points="105.22,-703.47 77.22,-703.47 77.22,-684.97 105.22,-684.97 105.22,-703.47"/>
<text text-anchor="middle" x="91.22" y="-690.92" font-family="Times,serif" font-size="9.00">&#45;33</text>
</g>
<!-- &#45;33&#45;&gt;0 -->
<g id="edge38" class="edge">
<title>&#45;33&#45;&gt;0</title>
<path fill="none" stroke="red" stroke-width="0.47" stroke-dasharray="1,5" d="M105.72,-687.34C110.46,-684.26 115.36,-680.19 118.45,-675.22 169.09,-593.66 91.74,-534.93 154.45,-462.22 177.58,-435.4 219.87,-427.39 246.68,-425.07"/>
<polygon fill="red" stroke="red" stroke-width="0.47" points="246.66,-428.58 256.41,-424.43 246.2,-421.6 246.66,-428.58"/>
</g>
<!-- &#45;33&#45;&gt;3 -->
<g id="edge28" class="edge">
<title>&#45;33&#45;&gt;3</title>
<path fill="none" stroke="green" stroke-width="0.29" d="M105.66,-696.35C119.29,-698.51 140.69,-701.89 157.14,-704.5"/>
<polygon fill="green" stroke="green" stroke-width="0.29" points="156.25,-707.9 166.68,-706.01 157.35,-700.99 156.25,-707.9"/>
</g>
<!-- &#45;34 -->
<g id="node34" class="node">
<title>&#45;34</title>
<polygon fill="lightgray" stroke="black" points="195.67,-194.47 167.67,-194.47 167.67,-175.97 195.67,-175.97 195.67,-194.47"/>
<text text-anchor="middle" x="181.67" y="-181.92" font-family="Times,serif" font-size="9.00">&#45;34</text>
</g>
<!-- &#45;34&#45;&gt;0 -->
<g id="edge14" class="edge">
<title>&#45;34&#45;&gt;0</title>
<path fill="none" stroke="green" stroke-width="0.17" stroke-dasharray="1,5" d="M196.13,-194.52C200.75,-198.3 205.58,-203.01 208.89,-208.22 248.15,-270.05 263.29,-357.31 268.57,-399.48"/>
<polygon fill="green" stroke="green" stroke-width="0.17" points="265.07,-399.64 269.71,-409.16 272.02,-398.82 265.07,-399.64"/>
</g>
<!-- &#45;34&#45;&gt;1 -->
<g id="edge15" class="edge">
<title>&#45;34&#45;&gt;1</title>
<path fill="none" stroke="green" stroke-width="1.03" stroke-dasharray="1,5" d="M195.69,-194.82C200.27,-198.63 205.18,-203.29 208.89,-208.22 265.81,-283.95 271.25,-310.76 299.34,-401.22 339,-528.91 354.82,-689.3 359.72,-751.2"/>
<polygon fill="green" stroke="green" stroke-width="1.03" points="356.22,-751.28 360.47,-760.99 363.2,-750.75 356.22,-751.28"/>
</g>
<!-- &#45;35 -->
<g id="node35" class="node">
<title>&#45;35</title>
<polygon fill="lightgray" stroke="black" points="105.22,-1072.47 77.22,-1072.47 77.22,-1053.97 105.22,-1053.97 105.22,-1072.47"/>
<text text-anchor="middle" x="91.22" y="-1059.92" font-family="Times,serif" font-size="9.00">&#45;35</text>
</g>
<!-- &#45;35&#45;&gt;4 -->
<g id="edge6" class="edge">
<title>&#45;35&#45;&gt;4</title>
<path fill="none" stroke="red" stroke-width="0.25" stroke-dasharray="1,5" d="M105.66,-1062.46C119.21,-1061.7 140.44,-1060.5 156.85,-1059.57"/>
<polygon fill="red" stroke="red" stroke-width="0.25" points="156.65,-1063.09 166.43,-1059.03 156.25,-1056.1 156.65,-1063.09"/>
</g>
<!-- &#45;36 -->
<g id="node36" class="node">
<title>&#45;36</title>
<polygon fill="lightgray" stroke="black" points="105.22,-889.47 77.22,-889.47 77.22,-870.97 105.22,-870.97 105.22,-889.47"/>
<text text-anchor="middle" x="91.22" y="-876.92" font-family="Times,serif" font-size="9.00">&#45;36</text>
</g>
<!-- &#45;36&#45;&gt;1 -->
<g id="edge11" class="edge">
<title>&#45;36&#45;&gt;1</title>
<path fill="none" stroke="green" stroke-width="0.69" d="M105.56,-884.99C110.16,-887.19 115.02,-890.23 118.45,-894.22 150,-931.05 114.9,-969.15 154.45,-997.22 174.18,-1011.23 187.45,-1008.44 208.89,-997.22 289.36,-955.12 335.92,-849.18 353.47,-801.33"/>
<polygon fill="green" stroke="green" stroke-width="0.69" points="356.74,-802.58 356.78,-791.99 350.14,-800.24 356.74,-802.58"/>
</g>
<!-- 2 -->
<g id="node40" class="node">
<title>2</title>
<ellipse fill="lightblue" stroke="black" cx="181.67" cy="-974.22" rx="14.5" ry="14.5"/>
<text text-anchor="middle" x="181.67" y="-970.92" font-family="Times,serif" font-size="9.00">2</text>
</g>
<!-- &#45;36&#45;&gt;2 -->
<g id="edge29" class="edge">
<title>&#45;36&#45;&gt;2</title>
<path fill="none" stroke="green" stroke-width="0.6" d="M104.06,-889.93C108.69,-893.9 113.96,-898.63 118.45,-903.22 135.87,-921.05 137.92,-927.56 154.45,-946.22 157.35,-949.5 160.48,-952.93 163.54,-956.23"/>
<polygon fill="green" stroke="green" stroke-width="0.6" points="160.8,-958.42 170.2,-963.32 165.9,-953.63 160.8,-958.42"/>
</g>
<!-- &#45;36&#45;&gt;3 -->
<g id="edge13" class="edge">
<title>&#45;36&#45;&gt;3</title>
<path fill="none" stroke="green" stroke-width="0.99" d="M105.47,-872.79C110.06,-869.7 114.94,-865.76 118.45,-861.22 145.31,-826.49 137.77,-809.84 154.45,-769.22 159.57,-756.75 165.49,-742.93 170.4,-731.61"/>
<polygon fill="green" stroke="green" stroke-width="0.99" points="173.53,-733.19 174.32,-722.63 167.11,-730.39 173.53,-733.19"/>
</g>
<!-- &#45;36&#45;&gt;4 -->
<g id="edge20" class="edge">
<title>&#45;36&#45;&gt;4</title>
<path fill="none" stroke="red" stroke-width="2.34" d="M105.69,-889.51C110.31,-893.29 115.15,-898 118.45,-903.22 149.79,-952.82 125.58,-979.15 154.45,-1030.22 156.2,-1033.32 158.36,-1036.34 160.68,-1039.18"/>
<polygon fill="red" stroke="red" stroke-width="2.34" points="158.11,-1041.56 167.5,-1046.47 163.22,-1036.78 158.11,-1041.56"/>
</g>
<!-- &#45;36&#45;&gt;19940 -->
<g id="edge45" class="edge">
<title>&#45;36&#45;&gt;19940</title>
<path fill="none" stroke="green" stroke-width="0.63" d="M105.66,-879.77C115.7,-879.43 129.95,-878.94 143.33,-878.49"/>
<polygon fill="green" stroke="green" stroke-width="0.63" points="143.43,-881.99 153.3,-878.15 143.19,-874.99 143.43,-881.99"/>
</g>
<!-- &#45;37 -->
<g id="node37" class="node">
<title>&#45;37</title>
<polygon fill="lightgray" stroke="black" points="28,-1258.47 0,-1258.47 0,-1239.97 28,-1239.97 28,-1258.47"/>
<text text-anchor="middle" x="14" y="-1245.92" font-family="Times,serif" font-size="9.00">&#45;37</text>
</g>
<!-- 19714&#45;&gt;0 -->
<g id="edge43" class="edge">
<title>19714&#45;&gt;0</title>
<path fill="none" stroke="red" stroke-width="0.36" d="M197.25,-299.68C201.09,-305.68 205.19,-312.17 208.89,-318.22 226.69,-347.25 246.47,-381.27 258.86,-402.79"/>
<polygon fill="red" stroke="red" stroke-width="0.36" points="255.7,-404.33 263.72,-411.26 261.77,-400.84 255.7,-404.33"/>
</g>
<!-- 19940&#45;&gt;0 -->
<g id="edge46" class="edge">
<title>19940&#45;&gt;0</title>
<path fill="none" stroke="red" stroke-width="0.21" stroke-dasharray="1,5" d="M200.03,-856.92C203.45,-852.04 206.67,-846.66 208.89,-841.22 238.51,-768.93 262,-527.27 268.99,-448.95"/>
<polygon fill="red" stroke="red" stroke-width="0.21" points="272.44,-449.61 269.84,-439.34 265.47,-449 272.44,-449.61"/>
</g>
<!-- 17543&#45;&gt;1 -->
<g id="edge32" class="edge">
<title>17543&#45;&gt;1</title>
<path fill="none" stroke="red" stroke-width="0.62" d="M289.35,-48.35C293.27,-54.46 297,-61.35 299.34,-68.22 343.79,-198.71 358.02,-640.31 360.95,-751.6"/>
<polygon fill="red" stroke="red" stroke-width="0.62" points="357.45,-751.58 361.2,-761.48 364.45,-751.4 357.45,-751.58"/>
</g>
<!-- 16265&#45;&gt;1 -->
<g id="edge25" class="edge">
<title>16265&#45;&gt;1</title>
<path fill="none" stroke="red" stroke-width="0.33" d="M298.7,-758.03C311.25,-761.86 326.25,-766.44 338.45,-770.17"/>
<polygon fill="red" stroke="red" stroke-width="0.33" points="337.26,-773.46 347.84,-773.04 339.3,-766.77 337.26,-773.46"/>
</g>
<!-- 16778&#45;&gt;1 -->
<g id="edge27" class="edge">
<title>16778&#45;&gt;1</title>
<path fill="none" stroke="green" stroke-width="0.52" stroke-dasharray="1,5" d="M209.07,-801.09C243.67,-795.68 303.89,-786.25 337.36,-781.01"/>
<polygon fill="green" stroke="green" stroke-width="0.52" points="337.89,-784.47 347.23,-779.47 336.81,-777.56 337.89,-784.47"/>
</g>
<!-- 16778&#45;&gt;16265 -->
<g id="edge57" class="edge">
<title>16778&#45;&gt;16265</title>
<path fill="none" stroke="green" stroke-width="0.23" d="M205.45,-791.06C215.87,-784.58 228.38,-776.8 239.68,-769.77"/>
<polygon fill="green" stroke="green" stroke-width="0.23" points="241.48,-772.78 248.12,-764.53 237.78,-766.83 241.48,-772.78"/>
</g>
<!-- 17963&#45;&gt;4 -->
<g id="edge34" class="edge">
<title>17963&#45;&gt;4</title>
<path fill="none" stroke="green" stroke-width="0.32" stroke-dasharray="1,5" d="M111.42,-990.88C126.99,-1006.03 148.74,-1027.18 163.69,-1041.71"/>
<polygon fill="green" stroke="green" stroke-width="0.32" points="160.87,-1043.85 170.48,-1048.31 165.75,-1038.83 160.87,-1043.85"/>
</g>
<!-- 11500&#45;&gt;7791 -->
<g id="edge41" class="edge">
<title>11500&#45;&gt;7791</title>
<path fill="none" stroke="red" stroke-width="0.64" d="M118.76,-132.12C127.44,-132.42 137.21,-132.75 146.38,-133.06"/>
<polygon fill="red" stroke="red" stroke-width="0.64" points="146.07,-136.55 156.18,-133.39 146.31,-129.56 146.07,-136.55"/>
</g>
<!-- 7791&#45;&gt;0 -->
<g id="edge21" class="edge">
<title>7791&#45;&gt;0</title>
<path fill="none" stroke="red" stroke-width="0.19" d="M198.62,-151.42C202.44,-156.25 206.2,-161.7 208.89,-167.22 247.7,-246.65 263.33,-352 268.7,-399.33"/>
<polygon fill="red" stroke="red" stroke-width="0.19" points="265.22,-399.7 269.77,-409.27 272.18,-398.95 265.22,-399.7"/>
</g>
<!-- 7791&#45;&gt;17543 -->
<g id="edge51" class="edge">
<title>7791&#45;&gt;17543</title>
<path fill="none" stroke="red" stroke-width="0.14" d="M197.67,-116.07C211.3,-99.59 231.63,-74.99 247.45,-55.86"/>
<polygon fill="red" stroke="red" stroke-width="0.14" points="250.1,-58.14 253.78,-48.2 244.71,-53.68 250.1,-58.14"/>
</g>
</g>
</svg>
